<svg viewBox="0 0 575 178" fill="none" xmlns="http://www.w3.org/2000/svg">
<path d="M574.229 66.7858C575.119 78.3824 568.105 90.1354 554.412 101.472C540.732 112.797 520.477 123.627 495.123 133.37C444.422 152.855 373.441 167.957 294.203 174.042C214.965 180.127 142.51 176.041 89.4284 164.526C62.8842 158.767 41.213 151.158 25.9639 142.054C10.7007 132.941 1.97404 122.397 1.08349 110.8C0.19293 99.2037 7.2073 87.4507 20.9001 76.1145C34.5804 64.7887 54.8355 53.9593 80.1893 44.2157C130.891 24.7307 201.871 9.62912 281.11 3.54406C360.348 -2.54101 432.802 1.54555 485.884 13.0605C512.428 18.8187 534.099 26.4283 549.348 35.5325C564.612 44.645 573.338 55.1892 574.229 66.7858Z" stroke="url(#paint0_linear_490_1988)"/>
<defs>
<linearGradient id="paint0_linear_490_1988" x1="145.5" y1="173" x2="272.5" y2="2.5001" gradientUnits="userSpaceOnUse">
<stop stop-color="#FA67B6"/>
<stop offset="1" stop-color="#91FF6A"/>
</linearGradient>
</defs>
</svg>
