<svg width="76" height="86" viewBox="0 0 76 86" fill="#eee" xmlns="http://www.w3.org/2000/svg" >
<path d="M38.0001 0.0914917C24.7861 0.0914917 14.0017 10.8759 14.0017 24.0899V30.9466H7.14501C3.35669 30.9466 0.28833 34.0149 0.28833 37.8032V78.9433C0.28833 82.7316 3.35669 85.8 7.14501 85.8H68.8551C72.6434 85.8 75.7118 82.7316 75.7118 78.9433V37.8032C75.7118 34.0149 72.6434 30.9466 68.8551 30.9466H61.9985V24.0899C61.9985 11.3076 51.8388 1.01223 39.2187 0.339243C38.831 0.183064 38.418 0.0990997 38.0001 0.0914917ZM38.0001 6.94817C47.5091 6.94817 55.1418 14.5808 55.1418 24.0899V30.9466H20.8584V24.0899C20.8584 14.5808 28.491 6.94817 38.0001 6.94817Z"/>
</svg>