<svg width="15" height="15" viewBox="0 0 15 15" fill="none" xmlns="http://www.w3.org/2000/svg">
<path d="M14.375 3.26655C13.8459 3.5027 13.2782 3.66284 12.6818 3.73434C13.2908 3.36699 13.757 2.78431 13.9779 2.09214C13.4067 2.43234 12.7761 2.67936 12.1041 2.81327C11.5661 2.23511 10.8008 1.875 9.95189 1.875C8.32333 1.875 7.00287 3.20504 7.00287 4.84452C7.00287 5.07704 7.02892 5.30414 7.07923 5.52131C4.62876 5.39734 2.45585 4.21479 1.00155 2.41786C0.747337 2.85579 0.602717 3.36606 0.602717 3.91077C0.602717 4.94133 1.12372 5.85064 1.9142 6.38264C1.43093 6.36636 0.976398 6.23245 0.578477 6.00987V6.04697C0.578477 7.48558 1.59532 8.68623 2.94362 8.95949C2.69659 9.02645 2.4361 9.06354 2.16661 9.06354C1.97619 9.06354 1.79204 9.04454 1.61148 9.00835C1.98695 10.1891 3.07567 11.0477 4.36559 11.0713C3.35683 11.8675 2.08487 12.3407 0.703343 12.3407C0.465309 12.3407 0.230846 12.3262 0 12.3C1.30519 13.1442 2.85471 13.6364 4.5201 13.6364C9.94475 13.6364 12.9099 9.1106 12.9099 5.18563L12.9001 4.8011C13.4794 4.38487 13.9806 3.86191 14.375 3.26655Z" />
</svg>
