<svg width="32" height="18" viewBox="0 0 32 18" fill="none" xmlns="http://www.w3.org/2000/svg">
<path d="M16 17.7076C12.4016 17.7076 8.52875 16.3003 4.80029 13.6377C2.01307 11.6474 0.292752 9.67552 0.220867 9.59242C-0.0736223 9.25239 -0.0736223 8.74768 0.220867 8.40758C0.292752 8.32462 2.01299 6.3526 4.80029 4.36227C8.52882 1.69992 12.4016 0.29248 16 0.29248C19.5984 0.29248 23.4713 1.69985 27.1997 4.36227C29.9869 6.3526 31.7072 8.32455 31.7791 8.40758C32.0736 8.74761 32.0736 9.25232 31.7791 9.59242C31.7072 9.67538 29.987 11.6474 27.1997 13.6377C23.4713 16.3002 19.5985 17.7076 16 17.7076ZM2.14554 9.00011C2.84123 9.70947 4.15419 10.9569 5.88776 12.1905C8.26437 13.8816 11.948 15.8978 16 15.8978C20.052 15.8978 23.7357 13.8816 26.1122 12.1905C27.8456 10.9571 29.1586 9.70955 29.8545 9.00011C29.1588 8.29074 27.8458 7.04336 26.1122 5.80974C23.7357 4.11852 20.052 2.10242 16 2.10242C11.948 2.10242 8.26437 4.11852 5.88776 5.80974C4.15441 7.04315 2.84137 8.29053 2.14554 9.00011Z" />
<path d="M16 14.6104C12.9064 14.6104 10.3896 12.0935 10.3896 9C10.3896 5.90649 12.9064 3.38965 16 3.38965C17.3605 3.38965 18.673 3.88293 19.6954 4.7787C20.0714 5.10801 20.1092 5.67969 19.7799 6.05562C19.4505 6.43155 18.8788 6.46926 18.5029 6.14002C17.8106 5.53346 16.9216 5.19944 15.9999 5.19944C13.9043 5.19944 12.1994 6.90441 12.1994 9C12.1994 11.0956 13.9043 12.8006 15.9999 12.8006C18.0957 12.8006 19.8005 11.0956 19.8005 9C19.8005 8.50028 20.2057 8.0951 20.7054 8.0951C21.2051 8.0951 21.6103 8.50028 21.6103 9C21.6104 12.0935 19.0936 14.6104 16 14.6104Z" />
<path d="M16.0002 10.81C15.0023 10.81 14.1904 9.99814 14.1904 9.00022C14.1904 8.0023 15.0023 7.19043 16.0002 7.19043C16.9982 7.19043 17.81 8.0023 17.81 9.00022C17.81 9.99814 16.9982 10.81 16.0002 10.81Z" />
</svg>