<svg width="135" height="28" viewBox="0 0 135 28" fill="none" xmlns="http://www.w3.org/2000/svg">
    <path d="M19.2944 22.7954H14.0698V9.22323L19.2944 7.46094V22.7954Z" />
    <path d="M16.6821 6.8062C18.5378 6.8062 20.0421 5.29805 20.0421 3.43765C20.0421 1.57724 18.5378 0.0690918 16.6821 0.0690918C14.8264 0.0690918 13.3221 1.57724 13.3221 3.43765C13.3221 5.29805 14.8264 6.8062 16.6821 6.8062Z" />
    <path d="M58.1299 7.6078C57.4387 8.30537 54.6463 11.267 53.1586 14.836H53.0701V9.22323L58.0826 7.53284L58.1299 7.6078Z" />
    <path d="M62.7854 7.46558C58.3252 7.46558 53.0701 15.0548 53.0701 19.0322V22.7969H58.2962V16.7834C58.2962 13.6856 58.6319 11.6893 59.9946 10.5832C59.9946 12.3104 61.3923 13.7116 63.115 13.7116C64.8698 13.7116 66.2858 12.2599 66.2339 10.4899C66.1821 8.68939 64.5814 7.46558 62.7854 7.46558Z" />
    <path d="M26.1197 13.0828C26.1197 15.1281 27.0292 16.3183 28.1598 16.3183C29.289 16.3183 30.1984 15.4188 30.1984 13.0828C30.1984 12.2598 29.9406 11.215 29.4523 10.4654L29.5133 10.4042C32.3271 10.805 35.1713 12.4036 35.1713 14.1384C35.1713 16.7283 32.1882 18.1249 28.1598 18.1249C27.2306 18.1249 26.4463 17.9903 25.7138 17.8159C25.2958 18.1127 25.076 18.4309 25.076 18.7017C25.076 19.104 25.4605 19.3304 26.164 19.3304H30.9568C35.002 19.3304 36.389 21.1309 36.389 22.9789C36.389 25.4633 33.5615 27.8711 29.0952 27.8711C26.4814 27.8711 24.0003 27.1827 21.9602 24.9982L23.2419 23.7132C25.166 25.5443 26.901 26.0736 29.0952 26.0736C31.4268 26.0736 32.3316 25.0548 32.3316 24.2517C32.3316 23.5204 31.7167 23.1655 30.4548 23.1655H24.7846C22.3569 23.1655 21.2643 21.7979 21.2643 20.4839C21.2643 19.153 22.3218 18.0882 23.8538 17.0556C22.2073 16.0934 21.1469 14.7059 21.1469 13.0828C21.1469 9.5567 24.2856 7.82959 28.1598 7.82959H36.6072V9.63625H28.9655C27.2657 9.63625 26.1197 10.7469 26.1197 13.0828Z" />
    <path d="M51.8554 15.8457C51.8737 15.6774 51.8844 15.4785 51.8844 15.3133C51.8844 10.415 48.3779 7.45947 44.0535 7.45947C39.7276 7.45947 36.2196 10.4135 36.2196 15.3133C36.2196 20.2759 39.9916 23.1641 44.5189 23.1641C47.9339 23.1641 49.8397 21.3238 51.6143 18.9557L50.2319 17.787C48.7594 19.4253 47.5539 20.5711 45.6008 20.5711C43.2479 20.5711 41.4473 18.6314 41.4473 15.8441C41.4473 15.8457 51.8554 15.8457 51.8554 15.8457ZM44.4396 9.27837C46.0036 9.27837 46.9039 10.8556 47.0946 12.2415C47.2335 13.2466 47.0763 14.0497 45.7503 14.0497H41.5007C41.7555 11.3313 42.8694 9.27837 44.4396 9.27837Z" />
    <path d="M12.9269 9.63634V7.81897H-0.0264282V9.63634H2.51724V17.3586C2.51724 21.2274 5.30046 23.1641 7.72205 23.1641C10.5205 23.1641 12.2967 21.1127 13.1207 18.1969L11.3949 17.6401C10.9493 18.8318 10.2291 19.8827 9.16707 19.8827C8.51094 19.8827 7.74189 19.4208 7.74189 18.0822V9.63481H12.9269V9.63634Z" />
    <path d="M10.168 6.71748V6.80468C5.22414 6.7802 2.51721 5.36058 2.51721 2.80127H7.72203C8.07909 4.74561 8.6925 5.7369 10.168 6.71748Z" />
    <path d="M117.608 1.43359L112.381 3.19589V8.2732C111.673 7.78367 110.35 7.45936 109.513 7.45936C104.798 7.45936 101.918 11.2517 101.918 15.2994C101.918 20.5129 105.841 23.164 109.093 23.164C113.236 23.164 117.608 16.9638 117.608 12.9864V1.43359ZM109.763 21.3466C108.32 21.3466 107.157 18.977 107.157 15.3117C107.157 11.6463 108.32 9.27673 109.763 9.27673C111.206 9.27673 112.369 11.6463 112.369 15.3117C112.369 18.977 111.208 21.3466 109.763 21.3466Z" />
    <path d="M126.249 7.46094C122.216 7.46094 119.233 9.54601 119.233 11.9615C119.233 13.3001 120.366 14.4137 121.92 14.4137C123.719 14.4137 125.063 12.809 125.063 11.241C125.063 9.91775 125.561 9.2783 126.296 9.2783C127.032 9.2783 127.529 9.91775 127.529 11.241V13.9854C121.74 15.4525 119.011 17.3173 119.011 19.719C119.011 21.8438 121.335 23.1656 124.241 23.1656C128.384 23.1656 132.755 16.9639 132.755 12.988C132.757 9.86268 129.9 7.46094 126.249 7.46094ZM125.255 20.542C124.566 20.542 124.111 19.9943 124.111 19.1912C124.111 17.6431 126.041 16.1347 127.531 15.7401C127.531 18.2137 126.882 20.542 125.255 20.542Z" />
    <path d="M134.127 20.9917V22.7984H129.241V22.6929C130.35 21.3451 131.756 19.3687 132.668 17.1826H132.757V19.4191C132.757 20.0234 132.909 20.4166 133.158 20.6583C133.407 20.9 133.749 20.9917 134.127 20.9917Z" />
    <path d="M93.1049 7.46094C88.779 7.46094 85.2725 10.4149 85.2725 15.3133C85.2725 20.2116 88.779 23.1656 93.1049 23.1656C97.4308 23.1656 100.937 20.2116 100.937 15.3133C100.937 10.4149 97.4308 7.46094 93.1049 7.46094ZM93.1049 21.3482C91.6614 21.3482 90.4986 18.9786 90.4986 15.3133C90.4986 11.6479 91.6614 9.2783 93.1049 9.2783C94.5484 9.2783 95.7111 11.6479 95.7111 15.3133C95.7111 18.9786 94.5499 21.3482 93.1049 21.3482Z" />
    <path d="M117.608 17.1826V22.7953H114.09V22.6944C115.2 21.3482 116.607 19.3717 117.519 17.1826H117.608Z" />
    <path d="M80.9969 13.7055C79.1567 12.6698 77.6292 11.8162 77.6292 10.7928C77.6292 9.82137 78.5738 9.2783 79.5198 9.2783C80.8992 9.2783 81.9399 10.5924 81.9399 12.347C82.5075 12.347 83.5283 12.347 83.5283 12.347V8.68934C82.3977 7.83573 81.0518 7.46094 79.3489 7.46094C75.702 7.46094 73.3201 9.67604 73.3201 12.4174C73.3201 14.12 74.1105 15.6498 76.3475 17.0098C78.4288 18.2764 79.5122 19.2493 79.5122 20.1045C79.5122 20.9612 78.6943 21.3497 77.8886 21.3497C76.5459 21.3497 75.3053 20.2712 74.9376 18.5533H73.3217L73.0195 21.3727C74.2296 22.471 75.8943 23.1686 78.1633 23.1686C81.9704 23.1686 84.5797 21.1417 84.5797 18.639C84.5766 16.739 83.4887 15.1067 80.9969 13.7055Z" />
</svg>
