<svg width="14" height="14" viewBox="0 0 14 14" fill="none" xmlns="http://www.w3.org/2000/svg">
<g clip-path="url(#clip0_632_6039)">
<path d="M12.0824 2.61279C11.8886 2.44845 11.5842 2.42494 11.2694 2.55129H11.2689C10.9379 2.68411 1.89907 6.56114 1.53111 6.71954C1.46418 6.7428 0.879683 6.96089 0.93989 7.44668C0.993637 7.88467 1.46341 8.06607 1.52077 8.087L3.81872 8.87382C3.97118 9.38132 4.5332 11.2537 4.65749 11.6537C4.73501 11.903 4.86137 12.2307 5.08282 12.2981C5.27713 12.3731 5.47042 12.3046 5.59548 12.2064L7.0004 10.9033L9.26838 12.672L9.32239 12.7043C9.47639 12.7726 9.62394 12.8067 9.76477 12.8067C9.87355 12.8067 9.97795 12.7863 10.0777 12.7454C10.4175 12.6059 10.5534 12.2821 10.5676 12.2454L12.2617 3.43993C12.365 2.96964 12.2214 2.73036 12.0824 2.61279ZM5.84536 9.18856L5.07016 11.2558L4.29496 8.67176L10.2382 4.27896L5.84536 9.18856Z" />
</g>
<defs>
<clipPath id="clip0_632_6039">
<rect width="12.92" height="12.92"  transform="translate(0.160156 0.919922)"/>
</clipPath>
</defs>
</svg>
