<svg width="20" height="17" viewBox="0 0 20 17" fill="none" xmlns="http://www.w3.org/2000/svg">
<path d="M18.2402 13.6805C18.219 13.6348 18.1993 13.5968 18.1809 13.5664C17.8773 13.0188 17.2971 12.3465 16.4406 11.5495L16.4225 11.5313L16.4134 11.5223L16.4043 11.5131H16.3951C16.0064 11.142 15.7602 10.8925 15.6572 10.7647C15.4686 10.5214 15.4263 10.275 15.5294 10.0254C15.6022 9.83685 15.8758 9.43859 16.3494 8.83011C16.5986 8.50764 16.7959 8.24919 16.9416 8.05447C17.9925 6.65514 18.4482 5.76094 18.3084 5.37154L18.2541 5.28054C18.2176 5.22576 18.1235 5.17564 17.9718 5.12993C17.8198 5.08432 17.6254 5.07678 17.3885 5.10717L14.7644 5.12533C14.7219 5.11024 14.6612 5.11165 14.5822 5.12993C14.5032 5.14821 14.4637 5.15739 14.4637 5.15739L14.418 5.18024L14.3817 5.2077C14.3514 5.22585 14.3179 5.25778 14.2815 5.30343C14.2452 5.34891 14.2148 5.40229 14.1906 5.46311C13.9049 6.19925 13.5801 6.88367 13.2155 7.51634C12.9908 7.8936 12.7843 8.22055 12.5958 8.49738C12.4076 8.77411 12.2496 8.97801 12.1222 9.1087C11.9945 9.23953 11.8793 9.34433 11.7759 9.4235C11.6725 9.50271 11.5937 9.53617 11.5391 9.52393C11.4844 9.51169 11.4328 9.49954 11.384 9.4874C11.299 9.43261 11.2307 9.35811 11.1791 9.26382C11.1274 9.16953 11.0925 9.05085 11.0743 8.90788C11.0562 8.76481 11.0455 8.64176 11.0424 8.53829C11.0395 8.43496 11.0409 8.28879 11.047 8.10021C11.0533 7.91153 11.0562 7.78387 11.0562 7.71694C11.0562 7.48572 11.0607 7.23478 11.0697 6.96406C11.0789 6.69333 11.0863 6.47883 11.0926 6.3208C11.0987 6.16262 11.1016 5.99526 11.1016 5.81883C11.1016 5.64239 11.0909 5.50403 11.0697 5.4036C11.0488 5.3033 11.0166 5.20594 10.9743 5.11155C10.9317 5.01726 10.8693 4.94432 10.7875 4.89254C10.7055 4.84083 10.6036 4.79979 10.4823 4.76929C10.1603 4.69632 9.75031 4.65685 9.25211 4.65071C8.12234 4.63857 7.39641 4.71163 7.07447 4.86982C6.94691 4.93665 6.83148 5.02797 6.72827 5.14348C6.61891 5.27738 6.60365 5.35044 6.6826 5.36246C7.04712 5.41715 7.30517 5.54797 7.45705 5.75481L7.51178 5.86441C7.55435 5.94348 7.59686 6.08348 7.6394 6.28421C7.68188 6.48493 7.70929 6.70698 7.72135 6.95022C7.75167 7.39441 7.75167 7.77464 7.72135 8.09094C7.69094 8.40737 7.66222 8.65371 7.6348 8.83015C7.60739 9.00658 7.56641 9.14955 7.51178 9.25902C7.45705 9.36853 7.42063 9.43546 7.40238 9.45975C7.38416 9.48404 7.36897 9.49935 7.3569 9.50536C7.27795 9.53566 7.19584 9.5511 7.11085 9.5511C7.02574 9.5511 6.92253 9.50846 6.80107 9.42325C6.67964 9.33804 6.55361 9.22099 6.42299 9.07191C6.29237 8.92281 6.14505 8.71444 5.98099 8.44678C5.81705 8.17913 5.64695 7.86279 5.47079 7.49777L5.32504 7.23306C5.23393 7.06276 5.10947 6.81479 4.95153 6.48938C4.79349 6.16383 4.65381 5.84894 4.53238 5.54475C4.48384 5.41699 4.41091 5.31973 4.31374 5.2528L4.26813 5.22534C4.23781 5.20105 4.18915 5.17526 4.12238 5.14777C4.05553 5.12031 3.98576 5.10062 3.91281 5.08851L1.41626 5.10666C1.16114 5.10666 0.988043 5.16455 0.896898 5.28016L0.860421 5.33485C0.842199 5.36531 0.833008 5.41395 0.833008 5.48092C0.833008 5.54785 0.85123 5.62999 0.887707 5.72725C1.25216 6.58514 1.64849 7.4125 2.0767 8.20946C2.50492 9.00642 2.87703 9.6484 3.19281 10.1348C3.50866 10.6216 3.8306 11.081 4.15864 11.5128C4.48668 11.9448 4.70381 12.2216 4.81005 12.3432C4.91642 12.4651 4.99997 12.5562 5.0607 12.617L5.28853 12.836C5.43431 12.982 5.64839 13.1569 5.93085 13.3607C6.21338 13.5645 6.52616 13.7653 6.86936 13.9632C7.21262 14.1607 7.61195 14.3219 8.06758 14.4466C8.52314 14.5714 8.96655 14.6215 9.39786 14.5974H10.4457C10.6582 14.579 10.8192 14.5121 10.9286 14.3965L10.9649 14.3508C10.9893 14.3145 11.0121 14.2581 11.0332 14.1822C11.0545 14.1061 11.0651 14.0224 11.0651 13.9312C11.0589 13.6697 11.0787 13.4339 11.1242 13.2241C11.1696 13.0143 11.2214 12.8561 11.2792 12.7496C11.3371 12.6431 11.4024 12.5533 11.4751 12.4805C11.5479 12.4075 11.5998 12.3633 11.6302 12.3481C11.6605 12.3328 11.6846 12.3224 11.7029 12.3162C11.8486 12.2675 12.0202 12.3146 12.2178 12.4577C12.4153 12.6007 12.6005 12.7772 12.7737 12.987C12.9468 13.197 13.1548 13.4326 13.3978 13.6942C13.6408 13.9558 13.8534 14.1503 14.0355 14.2783L14.2177 14.3878C14.3394 14.4609 14.4973 14.5278 14.6917 14.5886C14.8858 14.6494 15.0558 14.6646 15.2018 14.6342L17.5343 14.5978C17.765 14.5978 17.9445 14.5595 18.0718 14.4836C18.1994 14.4076 18.2752 14.3238 18.2997 14.2327C18.324 14.1414 18.3253 14.038 18.3043 13.9222C18.2827 13.8068 18.2614 13.7261 18.2402 13.6805Z" />
</svg>
