<svg viewBox="0 0 321 72" fill="none" xmlns="http://www.w3.org/2000/svg">
<path d="M319.964 23.6878C320.129 25.8388 319.26 28.0683 317.349 30.3605C315.437 32.6547 312.509 34.9749 308.643 37.2833C300.912 41.8991 289.525 46.4098 275.304 50.5608C246.871 58.8606 207.211 65.6931 163.069 69.083C118.927 72.4729 78.689 71.776 49.3216 67.9151C34.6337 65.9841 22.692 63.2649 14.3465 59.8837C10.1728 58.1928 6.92519 56.3467 4.68496 54.3714C2.44667 52.3979 1.24782 50.3271 1.08264 48.1762C0.917454 46.0252 1.78607 43.7957 3.69678 41.5035C5.60913 39.2093 8.53681 36.889 12.4034 34.5806C20.1347 29.9649 31.5212 25.4542 45.742 21.3032C74.1755 13.0034 113.835 6.17089 157.977 2.78101C202.119 -0.608872 242.357 0.087956 271.725 3.94891C286.413 5.87994 298.354 8.5991 306.7 11.9802C310.873 13.6712 314.121 15.5173 316.361 17.4925C318.6 19.4661 319.798 21.5369 319.964 23.6878Z" stroke="url(#paint0_linear_654_1219)"/>
<defs>
<linearGradient id="paint0_linear_654_1219" x1="80.4005" y1="70.846" x2="123.443" y2="-13.0756" gradientUnits="userSpaceOnUse">
<stop stop-color="#FA67B6"/>
<stop offset="1" stop-color="#91FF6A"/>
</linearGradient>
</defs>
</svg>
